<svg width="12" height="14" viewBox="0 0 12 14" fill="none" xmlns="http://www.w3.org/2000/svg">
<path fill-rule="evenodd" clip-rule="evenodd" d="M11.2173 5.93768C11.4807 6.1252 11.6287 6.37951 11.6287 6.64468C11.6287 6.90984 11.4807 7.16415 11.2173 7.35168L3.27014 13.0087C3.14055 13.1042 2.98553 13.1804 2.81413 13.2328C2.64274 13.2852 2.45839 13.3128 2.27186 13.3139C2.08532 13.3151 1.90034 13.2898 1.72769 13.2395C1.55504 13.1892 1.39818 13.115 1.26628 13.0211C1.13437 12.9272 1.03006 12.8155 0.959421 12.6926C0.888784 12.5697 0.853239 12.4381 0.85486 12.3053C0.856481 12.1725 0.895236 12.0413 0.968862 11.9193C1.04249 11.7973 1.14951 11.6869 1.28369 11.5947L8.23767 6.64468L1.28369 1.69468C1.02778 1.50607 0.886185 1.25347 0.889386 0.991277C0.892586 0.72908 1.04033 0.478267 1.3008 0.292859C1.56127 0.107451 1.91362 0.00228103 2.28197 2.70092e-06C2.65032 -0.00227563 3.00518 0.0985182 3.27014 0.280677L11.2173 5.93768Z" fill="black"/>
</svg>
