<svg width="16" height="16" viewBox="0 0 16 16" fill="none" xmlns="http://www.w3.org/2000/svg">
<path d="M1.09992 7.59647C5.39487 5.76188 8.25885 4.55241 9.69185 3.96805C13.7834 2.29959 14.6335 2.00977 15.1877 2.00009C15.3095 1.99809 15.582 2.0277 15.7586 2.16813C15.9076 2.2867 15.9486 2.44688 15.9683 2.5593C15.9879 2.67172 16.0123 2.92782 15.9929 3.12793C15.7712 5.41192 14.8118 10.9546 14.3237 13.5127C14.1172 14.5951 13.7105 14.958 13.3168 14.9936C12.4613 15.0707 11.8116 14.4392 10.9829 13.9067C9.68624 13.0733 8.95369 12.5545 7.69503 11.7414C6.24042 10.8016 7.18338 10.2851 8.01236 9.44091C8.22931 9.21999 11.999 5.85836 12.0719 5.55341C12.0811 5.51527 12.0895 5.37311 12.0034 5.29804C11.9172 5.22297 11.7901 5.24864 11.6983 5.26906C11.5683 5.29799 9.4968 6.64035 5.48389 9.29611C4.89591 9.69195 4.36333 9.88482 3.88616 9.87472C3.36012 9.86357 2.34822 9.58311 1.59598 9.34338C0.673328 9.04933 -0.0599784 8.89387 0.00387615 8.3945C0.0371355 8.13439 0.402482 7.86838 1.09992 7.59647Z" fill="white"/>
</svg>
